# xmcd
#
# Track frame offsets:
#	150
#	15400
#	31815
#	49055
#	63280
#	78287
#	95964
#	112243
#	128137
#	145619
#	159486
#
# Disc length: 2298 seconds
#
# Revision: 1
# Processed by: cddbd v1.5.2PL0 Copyright (c) Steve Scherf et al.
# Submitted via: audiograbber 1.83.01
#
DISCID=8a08f80b
DTITLE=Toby Keith - Big Dog Daddy
DYEAR=2007
DGENRE=Country
TTITLE0=High Maintenance Woman
TTITLE1=Love Me If You Can
TTITLE2=White Rose
TTITLE3=Get My Drink On
TTITLE4=Wouldn't Wanna Be Ya
TTITLE5=Big Dog Daddy
TTITLE6=I Know She Hung The Moon
TTITLE7=Pump Jack
TTITLE8=Burnin' Moonlight
TTITLE9=Walk It Off
TTITLE10=Hit It
EXTD=
EXTT0=
EXTT1=
EXTT2=
EXTT3=
EXTT4=
EXTT5=
EXTT6=
EXTT7=
EXTT8=
EXTT9=
EXTT10=
PLAYORDER=
